<svg width="1078" height="574" viewBox="0 0 1078 574" fill="none" xmlns="http://www.w3.org/2000/svg">
<g filter="url(#filter0_d)">
<rect x="4" width="1070" height="566" fill="#1A1919"/>
<path d="M672.643 345.858C655.86 372.686 631.498 393.934 602.639 406.916C573.779 419.898 541.718 424.031 510.51 418.792C479.302 413.553 450.348 399.177 427.31 377.482C404.272 355.787 388.184 327.748 381.082 296.911C373.98 266.073 376.181 233.822 387.408 204.235C398.635 174.649 418.383 149.056 444.156 130.693C469.928 112.33 500.567 102.022 532.197 101.072C563.828 100.122 595.03 108.573 621.858 125.357L613.803 138.232C589.522 123.042 561.282 115.393 532.653 116.253C504.025 117.113 476.294 126.442 452.969 143.062C429.643 159.682 411.769 182.845 401.608 209.624C391.446 236.402 389.454 265.592 395.882 293.502C402.31 321.413 416.871 346.79 437.722 366.425C458.573 386.061 484.779 399.072 513.024 403.814C541.27 408.556 570.288 404.815 596.408 393.066C622.528 381.316 644.578 362.084 659.768 337.803L672.643 345.858Z" fill="#5FAFF5"/>
<path d="M549.708 395.472C525.359 397.581 500.878 393.347 478.681 383.187C456.485 373.028 437.341 357.295 423.142 337.543C408.943 317.791 400.179 294.703 397.715 270.559C395.252 246.415 399.175 222.051 409.097 199.872C419.018 177.694 434.595 158.47 454.289 144.097C473.983 129.725 497.112 120.702 521.392 117.92C545.672 115.138 570.264 118.692 592.737 128.233C615.21 137.774 634.788 152.97 649.537 172.321L648.497 173.103C633.885 153.931 614.489 138.876 592.224 129.424C569.959 119.972 545.596 116.45 521.542 119.206C497.487 121.963 474.572 130.902 455.061 145.141C435.551 159.38 420.118 178.426 410.289 200.398C400.459 222.37 396.573 246.508 399.013 270.428C401.453 294.348 410.136 317.222 424.204 336.791C438.271 356.359 457.237 371.946 479.227 382.011C501.218 392.076 525.472 396.271 549.595 394.182L549.708 395.472Z" fill="#5FAFF5"/>
<path d="M426.163 173.179C439.392 155.539 456.728 141.317 476.7 131.721C496.672 122.124 518.69 117.436 540.885 118.054L540.763 122.352C519.267 121.754 497.942 126.294 478.599 135.589C459.256 144.883 442.467 158.657 429.655 175.741L426.163 173.179Z" fill="#5FAFF5"/>
<path d="M593.48 373.09C571.047 383.911 545.978 388.06 521.255 385.043C496.532 382.026 473.196 371.971 454.023 356.074C434.85 340.177 420.647 319.106 413.105 295.369C405.562 271.633 404.997 246.229 411.476 222.18C417.956 198.131 431.207 176.45 449.654 159.716C468.101 142.981 490.967 131.898 515.531 127.785C540.095 123.672 565.324 126.702 588.216 136.514C611.108 146.326 630.7 162.508 644.66 183.135L637.206 188.179C624.213 168.981 605.978 153.919 584.67 144.786C563.363 135.653 539.881 132.833 517.017 136.662C494.154 140.49 472.871 150.806 455.701 166.382C438.531 181.957 426.197 202.138 420.167 224.522C414.136 246.905 414.662 270.55 421.682 292.644C428.703 314.737 441.922 334.349 459.768 349.146C477.613 363.942 499.334 373.301 522.345 376.109C545.356 378.917 568.69 375.055 589.57 364.983L593.48 373.09Z" fill="#5FAFF5"/>
<path d="M622.31 322.986C609.438 340.788 591.762 354.233 571.52 361.62C551.278 369.006 529.378 370.003 508.589 364.485C487.8 358.966 469.057 347.179 454.729 330.615C440.4 314.051 431.131 293.454 428.093 271.428C425.055 249.401 428.384 226.936 437.66 206.871C446.936 186.807 461.742 170.045 480.205 158.706C498.669 147.366 519.96 141.958 541.388 143.166C562.816 144.373 583.417 152.142 600.586 165.489L598.862 167.874C582.147 154.88 562.092 147.317 541.232 146.141C520.372 144.966 499.644 150.231 481.67 161.27C463.695 172.309 449.282 188.627 440.252 208.159C431.221 227.692 427.98 249.563 430.938 271.006C433.896 292.449 442.919 312.5 456.868 328.626C470.817 344.751 489.064 356.225 509.302 361.598C529.54 366.97 550.86 366 570.566 358.809C590.272 351.617 607.479 338.529 620.011 321.198L622.31 322.986Z" fill="#5FAFF5"/>
<path d="M615.509 315.987C603.942 331.812 588.058 343.762 569.868 350.329C551.678 356.895 531.999 357.781 513.317 352.875C494.636 347.97 477.793 337.493 464.917 322.769C452.042 308.046 443.712 289.737 440.982 270.158C438.252 250.579 441.244 230.609 449.579 212.774C457.915 194.94 471.219 180.04 487.811 169.961C504.403 159.881 523.536 155.074 542.791 156.147C562.046 157.221 580.559 164.126 595.988 175.99L595.614 176.501C580.284 164.713 561.89 157.851 542.757 156.785C523.625 155.718 504.614 160.495 488.128 170.51C471.643 180.525 458.423 195.329 450.141 213.05C441.858 230.772 438.886 250.614 441.598 270.068C444.311 289.521 452.587 307.713 465.381 322.343C478.174 336.973 494.91 347.383 513.472 352.257C532.034 357.131 551.588 356.25 569.662 349.726C587.736 343.202 603.517 331.328 615.011 315.604L615.509 315.987Z" fill="#5FAFF5"/>
<path d="M502.065 360.125C488.692 355.434 476.34 348.058 465.715 338.416C455.091 328.775 446.401 317.057 440.142 303.933L445.129 301.374C451.064 313.82 459.304 324.931 469.379 334.073C479.454 343.216 491.166 350.211 503.847 354.658L502.065 360.125Z" fill="#5FAFF5"/>
<path d="M437.904 210.068C448.1 185.729 466.331 165.959 489.32 154.312L492.694 161.477C471.349 172.291 454.422 190.647 444.955 213.246L437.904 210.068Z" fill="#5FAFF5"/>
<path d="M603.167 312.511C592.195 326.506 577.501 336.784 560.943 342.046C544.385 347.309 526.706 347.318 510.143 342.074C493.58 336.829 478.876 326.567 467.89 312.583C456.905 298.6 450.131 281.524 448.426 263.515C446.721 245.506 450.161 227.373 458.311 211.409C466.461 195.444 478.955 182.365 494.213 173.826C509.471 165.287 526.808 161.671 544.032 163.436C561.255 165.201 577.591 172.266 590.975 183.74L576.094 202.721C566.301 194.325 554.346 189.155 541.743 187.864C529.14 186.572 516.453 189.218 505.288 195.467C494.123 201.715 484.98 211.286 479.016 222.968C473.053 234.65 470.535 247.919 471.783 261.097C473.031 274.275 477.987 286.77 486.026 297.003C494.065 307.235 504.825 314.745 516.945 318.582C529.065 322.42 542.002 322.413 554.118 318.562C566.234 314.712 576.987 307.19 585.016 296.949L603.167 312.511Z" fill="#5FAFF5"/>
<path d="M588.016 333.622C577.359 343.755 563.708 349.224 549.646 348.993L549.757 340.72C561.987 340.92 573.859 336.164 583.128 327.352L588.016 333.622Z" fill="#5FAFF5"/>
<path d="M578.66 365.72C563.087 371.976 546.085 374.755 529.081 373.825C512.077 372.894 495.568 368.282 480.939 360.374L482.31 358.29C496.572 365.999 512.666 370.496 529.243 371.403C545.819 372.309 562.394 369.6 577.575 363.502L578.66 365.72Z" fill="#5FAFF5"/>
<path d="M426.668 291C419.308 273.08 418.008 253.589 422.932 235L425.543 235.293C420.985 252.498 422.188 270.54 429 287.126L426.668 291Z" fill="#5FAFF5"/>
<path d="M489.082 148.483C503.198 141.786 518.792 138.201 534.647 138.008C550.503 137.815 566.193 141.019 580.494 147.37L579.47 149.353C565.498 143.148 550.169 140.018 534.679 140.207C519.188 140.396 503.953 143.898 490.162 150.441L489.082 148.483Z" fill="#5FAFF5"/>
<path d="M488.758 387.192C463.653 377.988 441.849 362.015 425.968 341.193L429.797 338.499C445.137 358.612 466.199 374.042 490.45 382.933L488.758 387.192Z" fill="#5FAFF5"/>
<path d="M166 121L337 121" stroke="#5FAFF5"/>
<path d="M968.643 346.858C951.86 373.686 927.498 394.934 898.639 407.916C869.779 420.898 837.718 425.031 806.51 419.792C775.302 414.553 746.348 400.177 723.31 378.482C700.272 356.787 684.184 328.748 677.082 297.911C669.98 267.073 672.181 234.822 683.408 205.235C694.635 175.649 714.383 150.056 740.156 131.693C765.928 113.33 796.567 103.022 828.197 102.072C859.828 101.122 891.03 109.573 917.858 126.357L909.803 139.232C885.522 124.042 857.282 116.393 828.653 117.253C800.025 118.113 772.294 127.442 748.969 144.062C725.643 160.682 707.769 183.845 697.608 210.624C687.446 237.402 685.454 266.592 691.882 294.502C698.31 322.413 712.871 347.79 733.722 367.425C754.573 387.061 780.779 400.072 809.024 404.814C837.27 409.556 866.288 405.815 892.408 394.066C918.528 382.316 940.578 363.084 955.768 338.803L968.643 346.858Z" fill="#5FAFF5"/>
<path d="M845.708 401.472C821.359 403.581 796.878 399.347 774.681 389.187C752.485 379.028 733.341 363.295 719.142 343.543C704.943 323.791 696.179 300.703 693.715 276.559C691.252 252.415 695.175 228.051 705.097 205.872C715.018 183.694 730.595 164.47 750.289 150.097C769.983 135.725 793.112 126.702 817.392 123.92C841.672 121.138 866.264 124.692 888.737 134.233C911.21 143.774 930.788 158.97 945.537 178.321L944.497 179.103C929.885 159.931 910.489 144.876 888.224 135.424C865.959 125.972 841.596 122.45 817.542 125.206C793.487 127.963 770.572 136.902 751.061 151.141C731.551 165.38 716.118 184.426 706.289 206.398C696.459 228.37 692.573 252.508 695.013 276.428C697.453 300.348 706.136 323.222 720.204 342.791C734.271 362.359 753.237 377.946 775.227 388.011C797.218 398.076 821.472 402.271 845.595 400.182L845.708 401.472Z" fill="#5FAFF5"/>
<path d="M722.163 179.179C735.392 161.539 752.728 147.317 772.7 137.721C792.672 128.124 814.69 123.436 836.885 124.054L836.763 128.352C815.267 127.754 793.942 132.294 774.599 141.589C755.256 150.883 738.467 164.657 725.655 181.741L722.163 179.179Z" fill="#5FAFF5"/>
<path d="M889.48 379.09C867.047 389.911 841.978 394.06 817.255 391.043C792.532 388.026 769.196 377.971 750.023 362.074C730.85 346.177 716.647 325.106 709.105 301.369C701.562 277.633 700.997 252.229 707.476 228.18C713.956 204.131 727.207 182.45 745.654 165.716C764.101 148.981 786.967 137.898 811.531 133.785C836.095 129.672 861.324 132.702 884.216 142.514C907.108 152.326 926.7 168.508 940.66 189.135L933.206 194.179C920.213 174.981 901.978 159.919 880.67 150.786C859.363 141.653 835.881 138.833 813.017 142.662C790.154 146.49 768.871 156.806 751.701 172.382C734.531 187.957 722.197 208.138 716.167 230.522C710.136 252.905 710.662 276.55 717.682 298.644C724.703 320.737 737.922 340.349 755.768 355.146C773.613 369.942 795.334 379.301 818.345 382.109C841.356 384.917 864.69 381.055 885.57 370.983L889.48 379.09Z" fill="#5FAFF5"/>
<path d="M918.31 328.986C905.438 346.788 887.762 360.233 867.52 367.62C847.278 375.006 825.378 376.003 804.589 370.485C783.8 364.966 765.057 353.179 750.729 336.615C736.4 320.051 727.131 299.454 724.093 277.428C721.055 255.401 724.384 232.936 733.66 212.871C742.936 192.807 757.742 176.045 776.205 164.706C794.669 153.366 815.96 147.958 837.388 149.166C858.816 150.373 879.417 158.142 896.586 171.489L894.862 173.874C878.147 160.88 858.092 153.317 837.232 152.141C816.372 150.966 795.644 156.231 777.67 167.27C759.695 178.309 745.282 194.627 736.252 214.159C727.221 233.692 723.98 255.563 726.938 277.006C729.896 298.449 738.919 318.5 752.868 334.626C766.817 350.751 785.064 362.225 805.302 367.598C825.54 372.97 846.86 372 866.566 364.809C886.272 357.617 903.479 344.529 916.011 327.198L918.31 328.986Z" fill="#5FAFF5"/>
<path d="M911.509 321.987C899.942 337.812 884.058 349.762 865.868 356.329C847.678 362.895 827.999 363.781 809.317 358.875C790.636 353.97 773.793 343.493 760.917 328.769C748.042 314.046 739.712 295.737 736.982 276.158C734.252 256.579 737.244 236.609 745.579 218.774C753.915 200.94 767.219 186.04 783.811 175.961C800.403 165.881 819.536 161.074 838.791 162.147C858.046 163.221 876.559 170.126 891.988 181.99L891.614 182.501C876.284 170.713 857.89 163.851 838.757 162.785C819.625 161.718 800.614 166.495 784.128 176.51C767.643 186.525 754.423 201.329 746.141 219.05C737.858 236.772 734.886 256.614 737.598 276.068C740.311 295.521 748.587 313.713 761.381 328.343C774.174 342.973 790.91 353.383 809.472 358.257C828.034 363.131 847.588 362.25 865.662 355.726C883.736 349.202 899.517 337.328 911.011 321.604L911.509 321.987Z" fill="#5FAFF5"/>
<path d="M798.065 366.125C784.692 361.434 772.34 354.058 761.715 344.416C751.091 334.775 742.401 323.057 736.142 309.933L741.129 307.374C747.064 319.82 755.304 330.931 765.379 340.073C775.454 349.216 787.166 356.211 799.847 360.658L798.065 366.125Z" fill="#5FAFF5"/>
<path d="M733.904 216.068C744.1 191.729 762.331 171.959 785.32 160.312L788.694 167.477C767.349 178.291 750.422 196.647 740.955 219.246L733.904 216.068Z" fill="#5FAFF5"/>
<g filter="url(#filter1_d)">
<path d="M899.167 318.511C888.195 332.506 873.501 342.784 856.943 348.046C840.385 353.309 822.706 353.318 806.143 348.074C789.58 342.829 774.876 332.567 763.89 318.583C752.905 304.6 746.131 287.524 744.426 269.515C742.721 251.506 746.161 233.373 754.311 217.409C762.461 201.444 774.955 188.365 790.213 179.826C805.471 171.287 822.808 167.671 840.032 169.436C857.255 171.201 873.591 178.266 886.975 189.74L872.094 208.721C862.301 200.325 850.346 195.155 837.743 193.864C825.14 192.572 812.453 195.218 801.288 201.467C790.123 207.715 780.98 217.286 775.016 228.968C769.053 240.65 766.535 253.919 767.783 267.097C769.031 280.275 773.987 292.77 782.026 303.003C790.065 313.235 800.825 320.745 812.945 324.582C825.065 328.42 838.002 328.413 850.118 324.562C862.234 320.712 872.987 313.19 881.016 302.949L899.167 318.511Z" fill="#5FAFF5"/>
</g>
<path d="M884.016 339.622C873.359 349.755 859.708 355.224 845.646 354.993L845.757 346.72C857.987 346.92 869.859 342.164 879.128 333.352L884.016 339.622Z" fill="#5FAFF5"/>
<path d="M874.66 371.72C859.087 377.976 842.085 380.755 825.081 379.825C808.077 378.894 791.568 374.282 776.939 366.374L778.31 364.29C792.572 371.999 808.666 376.496 825.243 377.403C841.819 378.309 858.394 375.6 873.575 369.502L874.66 371.72Z" fill="#5FAFF5"/>
<path d="M722.668 297C715.308 279.08 714.008 259.589 718.932 241L721.543 241.293C716.985 258.498 718.188 276.54 725 293.126L722.668 297Z" fill="#5FAFF5"/>
<path d="M786.082 154.483C800.198 147.786 815.792 144.201 831.647 144.008C847.503 143.815 863.193 147.019 877.494 153.37L876.47 155.353C862.498 149.148 847.169 146.018 831.679 146.207C816.188 146.396 800.953 149.898 787.162 156.441L786.082 154.483Z" fill="#5FAFF5"/>
<path d="M784.758 393.192C759.653 383.988 737.849 368.015 721.968 347.193L725.797 344.499C741.137 364.612 762.199 380.042 786.45 388.933L784.758 393.192Z" fill="#5FAFF5"/>
<path d="M332 395H217.741L193.954 370H146" stroke="#5FAFF5" stroke-width="5"/>
<path d="M194 398H154" stroke="#5FAFF5"/>
<path d="M191.679 398H211L192.967 376H147" stroke="#5FAFF5"/>
<path d="M316.605 126H298L315.365 149H350" stroke="#5FAFF5"/>
<path d="M153 126V225C153 236.046 161.954 245 173 245H248" stroke="#5FAFF5"/>
<path d="M248 245H345" stroke="#5FAFF5"/>
<path d="M351 112H169.55C158.504 112 149.55 120.954 149.55 132V227.808C149.55 238.854 158.504 247.808 169.55 247.808H331C342.046 247.808 351 256.762 351 267.808V387C351 398.046 342.046 407 331 407H149.55H147" stroke="#5FAFF5" stroke-width="15"/>
<path d="M189 127H288.617L313.001 157H350" stroke="#5FAFF5" stroke-width="5"/>
<path d="M242 136H284.627L297 151" stroke="#5FAFF5"/>
<path d="M329.797 394.905V394.905C332.585 394.874 334.817 392.579 334.77 389.79L332.823 273.861C332.731 268.409 328.288 264.04 322.835 264.039L150.864 264.016" stroke="#5FAFF5" stroke-width="5"/>
<path d="M190 127H171C168.239 127 166 129.239 166 132V216" stroke="#5FAFF5" stroke-width="5"/>
<path d="M351 126L304 126" stroke="#5FAFF5"/>
<path d="M166 214V228C166 230.761 168.239 233 171 233H246" stroke="#5FAFF5" stroke-width="5"/>
<path d="M173 146V194" stroke="#5FAFF5"/>
<path d="M174 214V224H204" stroke="#5FAFF5"/>
<path d="M326 289V272H286" stroke="#5FAFF5"/>
<path d="M326 367V388H286" stroke="#5FAFF5"/>
<path d="M270.441 233.683L332.014 233.683C338.89 233.683 345.612 235.72 351.331 239.537V239.537" stroke="#5FAFF5" stroke-width="5"/>
<path d="M326 321V368" stroke="#5FAFF5"/>
<path d="M320 282V330" stroke="#5FAFF5"/>
<path d="M221 388L276 388" stroke="#5FAFF5"/>
<path d="M146 365H195.93L216 385" stroke="#5FAFF5"/>
<path d="M163 395H190" stroke="#5FAFF5"/>
<path d="M197 395H205L197 385" stroke="#5FAFF5"/>
<path d="M191 379H159" stroke="#5FAFF5"/>
<path d="M259 383H295" stroke="#5FAFF5"/>
<path d="M214 375L220 383H230" stroke="#5FAFF5"/>
<path d="M320 341V377" stroke="#5FAFF5"/>
<path d="M267 273H218" stroke="#5FAFF5"/>
<path d="M153 273H196" stroke="#5FAFF5"/>
<path d="M182 279H230" stroke="#5FAFF5"/>
<path d="M237 280H248" stroke="#5FAFF5"/>
<path d="M255 279L312 280" stroke="#5FAFF5"/>
<path d="M232 137H175" stroke="#5FAFF5"/>
<path d="M227 223H295" stroke="#5FAFF5"/>
<path d="M314 224H337" stroke="#5FAFF5"/>
<path d="M311.5 137L307 131H323" stroke="#5FAFF5"/>
<path d="M331 131H350" stroke="#5FAFF5"/>
<path d="M318 145H340" stroke="#5FAFF5"/>
<path d="M345 145H350" stroke="#5FAFF5"/>
<circle cx="353" cy="112" r="11" fill="#5FAFF5"/>
<circle cx="146" cy="409" r="12" fill="#5FAFF5"/>
<circle cx="143.5" cy="370.5" r="4.5" fill="#5FAFF5"/>
<circle cx="139.5" cy="435.5" r="4.5" fill="#1C5E97"/>
<circle cx="139.5" cy="451.5" r="4.5" fill="#1C5E97"/>
<ellipse cx="153" cy="264.5" rx="4" ry="4.5" fill="#5FAFF5"/>
<ellipse cx="350.5" cy="239" rx="4.5" ry="4" fill="#5FAFF5"/>
<ellipse cx="271" cy="234.5" rx="4" ry="4.5" fill="#5FAFF5"/>
<circle cx="246.5" cy="234.5" r="4.5" fill="#5FAFF5"/>
<circle cx="349" cy="157" r="4" fill="#5FAFF5"/>
<path d="M139 436H969" stroke="#1C5E97" stroke-width="5"/>
<path d="M967.5 451H138" stroke="#1C5E97" stroke-width="5"/>
<g filter="url(#filter2_d)">
<circle cx="968.5" cy="435.5" r="4.5" fill="#1C5E97"/>
</g>
<circle cx="967.5" cy="450.5" r="4.5" fill="#1C5E97"/>
</g>
<defs>
<filter id="filter0_d" x="0" y="0" width="1078" height="574" filterUnits="userSpaceOnUse" color-interpolation-filters="sRGB">
<feFlood flood-opacity="0" result="BackgroundImageFix"/>
<feColorMatrix in="SourceAlpha" type="matrix" values="0 0 0 0 0 0 0 0 0 0 0 0 0 0 0 0 0 0 127 0"/>
<feOffset dy="4"/>
<feGaussianBlur stdDeviation="2"/>
<feColorMatrix type="matrix" values="0 0 0 0 0 0 0 0 0 0 0 0 0 0 0 0 0 0 0.25 0"/>
<feBlend mode="normal" in2="BackgroundImageFix" result="effect1_dropShadow"/>
<feBlend mode="normal" in="SourceGraphic" in2="effect1_dropShadow" result="shape"/>
</filter>
<filter id="filter1_d" x="740" y="169" width="163.167" height="191" filterUnits="userSpaceOnUse" color-interpolation-filters="sRGB">
<feFlood flood-opacity="0" result="BackgroundImageFix"/>
<feColorMatrix in="SourceAlpha" type="matrix" values="0 0 0 0 0 0 0 0 0 0 0 0 0 0 0 0 0 0 127 0"/>
<feOffset dy="4"/>
<feGaussianBlur stdDeviation="2"/>
<feColorMatrix type="matrix" values="0 0 0 0 0 0 0 0 0 0 0 0 0 0 0 0 0 0 0.25 0"/>
<feBlend mode="normal" in2="BackgroundImageFix" result="effect1_dropShadow"/>
<feBlend mode="normal" in="SourceGraphic" in2="effect1_dropShadow" result="shape"/>
</filter>
<filter id="filter2_d" x="960" y="431" width="17" height="17" filterUnits="userSpaceOnUse" color-interpolation-filters="sRGB">
<feFlood flood-opacity="0" result="BackgroundImageFix"/>
<feColorMatrix in="SourceAlpha" type="matrix" values="0 0 0 0 0 0 0 0 0 0 0 0 0 0 0 0 0 0 127 0"/>
<feOffset dy="4"/>
<feGaussianBlur stdDeviation="2"/>
<feColorMatrix type="matrix" values="0 0 0 0 0 0 0 0 0 0 0 0 0 0 0 0 0 0 0.25 0"/>
<feBlend mode="normal" in2="BackgroundImageFix" result="effect1_dropShadow"/>
<feBlend mode="normal" in="SourceGraphic" in2="effect1_dropShadow" result="shape"/>
</filter>
</defs>
</svg>
